# xmcd
#
# Track frame offsets:
#	150
#	10950
#	27316
#	38057
#	50600
#	65109
#	79550
#	98525
#	113005
#	129846
#	141270
#	160989
#	175567
#	184974
#	201933
#
# Disc length: 2859 seconds
#
# Revision: 2
# Processed by: cddbd v1.5.2PL0 Copyright (c) Steve Scherf et al.
# Submitted via: audiograbber 1.83.01
#
DISCID=c30b290f
DTITLE=Various Artist - The Very Best Of Easy Listening CD3
DYEAR=2006
DGENRE=Pop
TTITLE0=Perez Prado Orchestra and Rosemary Clooney - Sway
TTITLE1=Nina Simone - My Baby Just Cares For Me
TTITLE2=Paul Anka - Can't Get Used To Losing You
TTITLE3=Dinah Washington - Mad About The Boy
TTITLE4=The Walker Brothers - Make It Easy On Yourself
TTITLE5=Esquivel and His Orchestra - Begin The Beguine
TTITLE6=Jose Feliciano - California Dreamin'
TTITLE7=Paula Santoro  - The Girl From Ipanema
TTITLE8=Lena Horne And Gabor Szabo - The Fool On The Hill
TTITLE9=The Percy Faith Orchestra - The Windmills Of Your Mind
TTITLE10=Cal Tjader  - What The World Needs Now Is Love
TTITLE11=Ray Conniff - Laughter In The Rain
TTITLE12=Frank Ifield - I Remember You
TTITLE13=Wave - Grupo Cabana
TTITLE14=Paris Express - Chanson d'Amour
EXTD=
EXTT0=
EXTT1=
EXTT2=
EXTT3=
EXTT4=
EXTT5=
EXTT6=
EXTT7=
EXTT8=
EXTT9=
EXTT10=
EXTT11=
EXTT12=
EXTT13=
EXTT14=
PLAYORDER=
